<svg width="179" height="32" viewBox="0 0 179 32" fill="none" xmlns="http://www.w3.org/2000/svg">
<mask id="mask0_32_364" style="mask-type:luminance" maskUnits="userSpaceOnUse" x="0" y="0" width="179" height="32">
<path d="M178.668 0.972168H0V31.7222H178.668V0.972168Z" fill="white"/>
</mask>
<g mask="url(#mask0_32_364)">
<mask id="mask1_32_364" style="mask-type:luminance" maskUnits="userSpaceOnUse" x="0" y="0" width="179" height="32">
<path d="M178.668 0.972168H0V31.7222H178.668V0.972168Z" fill="white"/>
</mask>
<g mask="url(#mask1_32_364)">
<path fill-rule="evenodd" clip-rule="evenodd" d="M167.943 14.5987V15.6351H169.738V21.3129C169.714 21.9773 169.783 22.6417 169.944 23.2866C170.842 26.2606 172.987 26.7923 175.68 26.7923C176.577 26.6572 177.977 26.549 178.65 25.8912V22.5115H178.516C177.618 23.4128 174.127 23.9715 174.127 21.6103V15.6351H178.614V12.3907H174.127V8.10986H173.355L167.943 14.5987Z" fill="white"/>
<path fill-rule="evenodd" clip-rule="evenodd" d="M157.146 14.734C156.916 15.1874 156.788 15.6856 156.769 16.194C156.589 18.6543 158.357 19.9971 160.198 20.8263C161.144 21.1516 162.048 21.5904 162.89 22.1331C163.028 22.2491 163.116 22.4132 163.137 22.5921C163.159 22.7711 163.112 22.9517 163.006 23.0974C162.109 24.1338 158.519 23.4849 157.218 22.3764H156.966V25.756C158.694 26.5919 160.611 26.9496 162.522 26.7924C165.107 26.4229 167.162 25.0531 167.144 22.3854C167.182 21.6491 167.03 20.9154 166.705 20.2544C166.38 19.5934 165.892 19.027 165.286 18.6093C164.245 17.8703 160.879 16.5455 160.844 16.1489C160.682 14.6258 162.639 15.0224 163.536 15.2477C164.529 15.4434 165.456 15.8901 166.229 16.5455H166.489V13.1658C164.977 12.4456 163.302 12.1349 161.633 12.2646C159.614 12.3998 157.909 13.1658 157.146 14.779" fill="white"/>
<path fill-rule="evenodd" clip-rule="evenodd" d="M147.533 12.1294C152.371 12.1294 154.893 15.4098 154.893 19.4564C154.893 21.4164 154.117 23.296 152.737 24.682C151.357 26.0679 149.485 26.8464 147.533 26.8464C145.582 26.8464 143.71 26.0679 142.33 24.682C140.949 23.296 140.174 21.4164 140.174 19.4564C140.174 15.4098 142.705 12.1294 147.533 12.1294ZM147.605 15.0854C145.55 15.0854 144.778 16.8879 144.778 19.3753C144.778 21.8627 145.298 23.8814 147.659 23.8814C150.02 23.8814 150.297 21.7906 150.297 19.3753C150.297 16.96 149.651 15.0854 147.605 15.0854Z" fill="white"/>
<path fill-rule="evenodd" clip-rule="evenodd" d="M124.539 26.5312H128.802L128.937 26.405V17.5459C129.789 16.3473 130.876 15.383 132.195 15.7435C132.618 15.8923 132.979 16.179 133.222 16.5578C133.464 16.9367 133.573 17.386 133.532 17.8343L133.487 26.5132H137.75V17.0142C137.735 15.9901 137.397 14.9972 136.787 14.1767C136.176 13.3562 135.324 12.7501 134.35 12.4445C133.376 12.139 132.332 12.1496 131.365 12.475C130.398 12.8003 129.558 13.4237 128.964 14.2565V5.77588H124.566L124.539 26.5312Z" fill="white"/>
<path fill-rule="evenodd" clip-rule="evenodd" d="M113.984 23.413C113.506 23.2441 113.067 22.9805 112.692 22.6379V16.149L112.818 16.0228C113.787 15.5362 114.613 15.1217 115.662 15.5001C116.188 15.7148 116.644 16.0705 116.981 16.5284C117.319 16.9862 117.524 17.5285 117.574 18.0957V20.6912C117.575 21.1288 117.475 21.5605 117.28 21.9521C117.085 22.3436 116.803 22.6842 116.454 22.9467C116.106 23.2093 115.701 23.3865 115.272 23.4643C114.843 23.5421 114.402 23.5184 113.984 23.3949M108.168 26.5132H112.566L112.692 25.7381C113.299 26.116 113.95 26.4186 114.631 26.6394C115.514 26.866 116.44 26.866 117.323 26.6394C118.355 26.3541 119.299 25.8125 120.068 25.0643C120.836 24.3161 121.405 23.3856 121.721 22.3585C122.852 18.9339 121.766 14.3466 118.355 12.6342L118.104 12.499C117.197 12.1702 116.228 12.0465 115.268 12.1368C114.307 12.2272 113.379 12.5294 112.548 13.0217V5.77588H108.15L108.168 26.5132Z" fill="white"/>
<path fill-rule="evenodd" clip-rule="evenodd" d="M101.957 17.726H96.7522C97.1646 14.1211 101.715 14.1211 101.957 17.726ZM97.5416 12.2555C91.3937 13.4091 90.1552 23.0072 95.7469 25.8822C96.7108 26.4904 97.8305 26.8036 98.9688 26.7834C101.33 26.7978 103.652 26.1754 105.691 24.9809V21.9889H105.431C102.828 24.6024 96.9944 24.9629 96.644 20.3035H105.817V18.0955C105.633 16.7171 105.043 15.4253 104.124 14.3851C103.204 13.3448 101.997 12.6034 100.656 12.2555L99.8754 12.1294H98.3225L97.5416 12.2555Z" fill="white"/>
<path fill-rule="evenodd" clip-rule="evenodd" d="M69.8984 12.7782L70.0331 13.0395L75.7144 26.7923H77.7784L77.913 26.531L80.9647 19.5014L84.106 26.7923H86.1795L91.9859 12.7782V12.3906H87.5972L85.1382 19.6546H84.8869L82.3018 12.3906H79.5916L77.0065 19.6546H76.7461L74.2962 12.3906H69.8984V12.7782Z" fill="white"/>
<path fill-rule="evenodd" clip-rule="evenodd" d="M62.9698 19.6185C61.2913 22.9981 58.2311 22.5205 54.6588 22.5115V9.78606L58.536 9.92125C59.6461 9.9582 60.7134 10.3586 61.5754 11.0616C62.4375 11.7646 63.0472 12.7314 63.3107 13.8146C63.8483 15.7329 63.7285 17.777 62.9698 19.6185ZM49.6147 26.531H58.6616C61.1418 26.5187 63.5498 25.6927 65.5189 24.1788C67.3087 22.7021 68.4417 20.5725 68.6691 18.2576C68.9406 16.6879 68.8902 15.0791 68.5212 13.5295C68.1528 11.9799 67.4731 10.5221 66.5241 9.24533C65.6047 8.15042 64.4548 7.27431 63.1569 6.68046C61.8596 6.08662 60.4467 5.78983 59.0205 5.81167H49.6147V26.531Z" fill="white"/>
<path d="M45.4862 5.77588H40.5767V26.5312H45.4862V5.77588Z" fill="white"/>
<path fill-rule="evenodd" clip-rule="evenodd" d="M2.21703 0.972168H8.07782C8.66975 0.979272 9.23492 1.22103 9.65015 1.64474C10.0654 2.06846 10.2971 2.63983 10.2946 3.23426V7.60521C10.2645 7.93487 10.3067 8.26708 10.4184 8.57855C10.53 8.88998 10.7084 9.17303 10.9409 9.40769L16.3708 14.6889C17.1427 15.4279 17.035 15.4279 18.0223 15.4279H28.3437C29.0261 15.4351 29.678 15.7129 30.1572 16.2008C30.6364 16.6888 30.904 17.3472 30.9016 18.0325V29.1086C30.904 29.7947 30.6367 30.4541 30.1577 30.9435C29.6788 31.4329 29.0269 31.7127 28.3437 31.7222H17.3043C16.6194 31.715 15.9652 31.4362 15.4843 30.9466C15.0035 30.457 14.7349 29.7963 14.7374 29.1086V18.9968C14.7763 18.6215 14.7193 18.2425 14.5717 17.8955C14.4241 17.5485 14.1907 17.2452 13.8937 17.0141L8.74196 11.9942C8.54877 11.7324 8.29275 11.524 7.99766 11.3885C7.70261 11.253 7.3782 11.1947 7.05464 11.2192H2.21703C1.62504 11.212 1.05987 10.9703 0.644641 10.5466C0.22941 10.1228 -0.00222268 9.55152 0.000163097 8.9571V3.25228C-0.00338906 2.95639 0.0511131 2.66273 0.160594 2.38799C0.270127 2.11326 0.432413 1.86286 0.638279 1.65116C0.844145 1.43941 1.08951 1.2705 1.36037 1.15396C1.63129 1.03748 1.92236 0.97572 2.21703 0.972168Z" fill="white"/>
<path fill-rule="evenodd" clip-rule="evenodd" d="M2.58492 14.022H9.34319C10.028 14.0291 10.6822 14.3079 11.1631 14.7975C11.644 15.2872 11.9125 15.9479 11.9101 16.6356V29.1086C11.9125 29.7962 11.644 30.457 11.1631 30.9466C10.6822 31.4362 10.028 31.715 9.34319 31.7221H2.57591C2.23569 31.721 1.89909 31.6524 1.58533 31.5203C1.27158 31.3882 0.986926 31.1952 0.747607 30.9524C0.508287 30.7096 0.319068 30.4217 0.19082 30.1053C0.062518 29.7889 -0.00232225 29.4502 6.35224e-05 29.1086V16.6356C-0.00237527 15.9494 0.264938 15.29 0.743895 14.8007C1.2228 14.3113 1.87475 14.0315 2.55799 14.022" fill="white"/>
<path fill-rule="evenodd" clip-rule="evenodd" d="M21.6752 0.972168H28.3527C29.028 0.979325 29.6731 1.25427 30.1473 1.73715C30.6214 2.22003 30.8861 2.87156 30.8837 3.54971V10.0746C30.8897 10.4134 30.8288 10.75 30.7046 11.0651C30.5804 11.3802 30.3953 11.6675 30.16 11.9104C29.9248 12.1534 29.644 12.3472 29.3338 12.4806C29.0236 12.6141 28.6902 12.6846 28.3527 12.6882H21.6752C20.9984 12.6834 20.351 12.4095 19.875 11.9263C19.3989 11.4432 19.1329 10.7903 19.1353 10.1106V3.54971C19.1329 2.87003 19.3989 2.21712 19.875 1.73403C20.351 1.25088 20.9984 0.97694 21.6752 0.972168Z" fill="white"/>
</g>
</g>
</svg>
